<svg width="66" height="36" fill="none" xmlns="http://www.w3.org/2000/svg"><path fill="#429F3A" d="M18 0h48v36H18z"/><circle cx="18" cy="18" r="18" fill="#429F3A"/><g clip-path="url(#a)" fill-rule="evenodd" clip-rule="evenodd" fill="#fff"><path d="M28 27a2 2 0 1 1 4 0 2 2 0 0 1-4 0ZM39 27a2 2 0 1 1 4 0 2 2 0 0 1-4 0ZM21 7a1 1 0 0 1 1-1h4a1 1 0 0 1 .98.804L27.82 11H44a1 1 0 0 1 .982 1.187l-1.601 8.398A3 3 0 0 1 40.39 23H30.69a3 3 0 0 1-2.99-2.414l-1.67-8.347a.977.977 0 0 1-.017-.084L25.18 8H22a1 1 0 0 1-1-1Zm7.22 6 1.44 7.195a1 1 0 0 0 1 .805h9.76a1 1 0 0 0 .998-.802L42.791 13h-14.57Z"/></g><defs><clipPath id="a"><path fill="#fff" transform="translate(21 6)" d="M0 0h24v24H0z"/></clipPath></defs></svg>