<svg width="16" height="16" fill="none" xmlns="http://www.w3.org/2000/svg"><g clip-path="url(#a)" fill-rule="evenodd" clip-rule="evenodd" fill="#429F3A"><path d="M4.667 14a1.333 1.333 0 1 1 2.667 0 1.333 1.333 0 0 1-2.667 0ZM12 14a1.333 1.333 0 1 1 2.667 0A1.333 1.333 0 0 1 12 14ZM0 .667C0 .298.298 0 .667 0h2.666c.318 0 .592.224.654.536l.56 2.797h10.786a.667.667 0 0 1 .655.792l-1.067 5.598a2 2 0 0 1-1.993 1.61H6.459a2 2 0 0 1-1.993-1.61s0 .001 0 0L3.353 4.16a.66.66 0 0 1-.012-.056l-.554-2.77H.667A.667.667 0 0 1 0 .667Zm4.814 4 .96 4.796A.667.667 0 0 0 6.44 10h6.505a.667.667 0 0 0 .666-.534l.915-4.8H4.815Z"/></g><defs><clipPath id="a"><path fill="#fff" d="M0 0h16v16H0z"/></clipPath></defs></svg>